# xmcd
#
# Track frame offsets:
#	150
#	19801
#	40289
#	57116
#	72132
#	87379
#	105942
#	122049
#	133442
#	148134
#	168315
#	182474
#
# Disc length: 2597 seconds
# Revision: 0
# Processed by: cddbd v1.5.2PL0 Copyright (c) Steve Scherf et al.
# Submitted via: dBpowerAMP V12.0
#
DISCID=a50a230c
DTITLE=Brooks Williams - Work My Claim
DYEAR=2020
DGENRE=Blues
TTITLE0=Inland Sailor (30th Anniversary Edition)
TTITLE1=King of California (30th Anniversary Edition)
TTITLE2=Frank Delandry (30th Anniversary Edition)
TTITLE3=Seven Sisters (30th Anniversary Edition)
TTITLE4=You Don't Know My Mind (30th Anniversary Edition)
TTITLE5=Here Comes The Blues (30th Anniversary Edition)
TTITLE6=Whatever It Takes (30th Anniversary Edition)
TTITLE7=Georgia  (30th Anniversary Edition)
TTITLE8=Mercy Illinois  (30th Anniversary Edition)
TTITLE9=I Got It Bad  (30th Anniversary Edition)
TTITLE10=Jump That Train  (30th Anniversary Edition)
TTITLE11=My Turn Now  (30th Anniversary Edition)
EXTD=
EXTT0=
EXTT1=
EXTT2=
EXTT3=
EXTT4=
EXTT5=
EXTT6=
EXTT7=
EXTT8=
EXTT9=
EXTT10=
EXTT11=
PLAYORDER=
